{
  "version": "1.1.1",
  "modules": [
    {
      "id": 1,
      "plugin": "Core",
      "version": "1.0.0",
      "model": "AudioInterface",
      "params": [],
      "rightModuleId": 2,
      "data": {
        "audio": {
          "driver": 5,
          "deviceName": "a: SMSL BT4.2",
          "offset": 0,
          "maxChannels": 8,
          "sampleRate": 48000,
          "blockSize": 256
        }
      },
      "pos": [
        0,
        0
      ]
    },
    {
      "id": 2,
      "plugin": "Fundamental",
      "version": "1.0.1",
      "model": "VCMixer",
      "params": [
        {
          "id": 0,
          "value": 0.980999649
        },
        {
          "id": 1,
          "value": 1.0
        },
        {
          "id": 2,
          "value": 1.0
        },
        {
          "id": 3,
          "value": 1.0
        },
        {
          "id": 4,
          "value": 1.0
        }
      ],
      "leftModuleId": 1,
      "rightModuleId": 3,
      "pos": [
        10,
        0
      ]
    },
    {
      "id": 3,
      "plugin": "Fundamental",
      "version": "1.0.1",
      "model": "VCO",
      "params": [
        {
          "id": 0,
          "value": 1.0
        },
        {
          "id": 1,
          "value": 1.0
        },
        {
          "id": 2,
          "value": 0.0
        },
        {
          "id": 3,
          "value": 0.0
        },
        {
          "id": 4,
          "value": 0.0
        },
        {
          "id": 5,
          "value": 0.5
        },
        {
          "id": 6,
          "value": 0.0
        }
      ],
      "leftModuleId": 2,
      "rightModuleId": 12,
      "pos": [
        20,
        0
      ]
    },
    {
      "id": 10,
      "plugin": "Fundamental",
      "version": "1.0.1",
      "model": "Scope",
      "params": [
        {
          "id": 0,
          "value": 0.0
        },
        {
          "id": 1,
          "value": 0.0
        },
        {
          "id": 2,
          "value": 0.0
        },
        {
          "id": 3,
          "value": 0.0
        },
        {
          "id": 4,
          "value": 14.0
        },
        {
          "id": 5,
          "value": 0.0
        },
        {
          "id": 6,
          "value": 0.0
        },
        {
          "id": 7,
          "value": 0.0
        }
      ],
      "data": {
        "lissajous": 0,
        "external": 0
      },
      "pos": [
        0,
        1
      ]
    },
    {
      "id": 12,
      "plugin": "Fundamental",
      "version": "1.0.1",
      "model": "VCF",
      "params": [
        {
          "id": 0,
          "value": 1.0
        },
        {
          "id": 1,
          "value": 0.5
        },
        {
          "id": 2,
          "value": 0.0
        },
        {
          "id": 3,
          "value": 0.0
        },
        {
          "id": 4,
          "value": 0.0
        }
      ],
      "leftModuleId": 3,
      "pos": [
        30,
        0
      ]
    }
  ],
  "cables": [
    {
      "id": 27,
      "outputModuleId": 2,
      "outputId": 0,
      "inputModuleId": 1,
      "inputId": 0,
      "color": "#0986ad"
    },
    {
      "id": 28,
      "outputModuleId": 2,
      "outputId": 0,
      "inputModuleId": 1,
      "inputId": 1,
      "color": "#c9b70e"
    },
    {
      "id": 35,
      "outputModuleId": 3,
      "outputId": 2,
      "inputModuleId": 12,
      "inputId": 3,
      "color": "#c9b70e"
    },
    {
      "id": 37,
      "outputModuleId": 12,
      "outputId": 0,
      "inputModuleId": 2,
      "inputId": 1,
      "color": "#c91847"
    },
    {
      "id": 41,
      "outputModuleId": 3,
      "outputId": 2,
      "inputModuleId": 10,
      "inputId": 0,
      "color": "#0986ad"
    },
    {
      "id": 42,
      "outputModuleId": 12,
      "outputId": 0,
      "inputModuleId": 10,
      "inputId": 1,
      "color": "#c9b70e"
    }
  ]
}